<svg xmlns="http://www.w3.org/2000/svg"  viewBox="0 0 16 16" width="32px" height="32px" baseProfile="basic"><path fill="#03a9f4" d="M16,2.105l-0.274-0.222c0,0-1.109,0.747-1.752,0.814c-0.619-0.657-1.503-1.064-2.483-1.064	c-1.88,0-3.405,1.511-3.405,3.374c0,0.263,0.031,0.52,0.088,0.769c-2.829-0.14-4.578-1.79-6.256-3.832L1.201,2.272	c0,0-0.457,1.339-0.457,2.766c0,3.841,3.03,6.143,4.179,6.693c-1.294,1.139-4.401,0.984-4.401,0.984L0,13.337	C0,13.337,1.885,15,5.22,15c6.262,0,9.689-4.615,9.689-9.604c0-0.146-0.005-0.292-0.013-0.434C15.653,4.105,16,3.214,16,2.105z"/></svg>