<svg xmlns="http://www.w3.org/2000/svg"  viewBox="0 0 16 16" width="32px" height="32px" baseProfile="basic"><path fill="#ec04c8" d="M11,15H5c-2.209,0-4-1.791-4-4V5c0-2.209,1.791-4,4-4h6c2.209,0,4,1.791,4,4v6	C15,13.209,13.209,15,11,15z"/><path fill="#fff" d="M11,2H5C3.343,2,2,3.343,2,5v6c0,1.657,1.343,3,3,3h6c1.657,0,3-1.343,3-3V5C14,3.343,12.657,2,11,2z M13,11c0,1.105-0.895,2-2,2H5c-1.105,0-2-0.895-2-2V5c0-1.105,0.895-2,2-2h6c1.105,0,2,0.895,2,2V11z"/><path fill="#fff" d="M8,5C6.343,5,5,6.343,5,8s1.343,3,3,3s3-1.343,3-3S9.657,5,8,5z M8,10c-1.105,0-2-0.895-2-2	c0-1.105,0.895-2,2-2s2,0.895,2,2C10,9.105,9.105,10,8,10z"/><circle cx="11.5" cy="4.5" r=".5" fill="#fff"/></svg>